# xmcd CD database file
#
# Track frame offsets:
#	150
#	13254
#	26241
#	40139
#	52969
#	65215
#	76586
#	89304
#	105572
#	115091
#	126093
#	137432
#	153887
#	165854
#	178193
#	190276
#
# Disc length: 2702 seconds
#
# Revision: 0
# Processed by: cddbd v1.5.2PL0 Copyright (c) Steve Scherf et al.
# Submitted via: CDex 1.70beta2
#
DISCID=c70a8c10
DTITLE=Short, Cliffy - Cdn. - On - Time That's Passing By
DYEAR=1900
DGENRE=Country
TTITLE0=Pass Me By
TTITLE1=Another Just Like Me
TTITLE2=Another Bridge To Burn
TTITLE3=Heart Over Mind
TTITLE4=It Kinda Reminds Me of Me
TTITLE5=If I'm A Fool For Leaving
TTITLE6=Who Will Buy the Wine
TTITLE7=When I Stop Dreammin'
TTITLE8=Cup of Loneliness
TTITLE9=I Can Read Between the Lines
TTITLE10=Just When I Needed You
TTITLE11=Time That's Passing By
TTITLE12=Turned and Walked Slowly Away
TTITLE13=Where Could I Go But To the Lord
TTITLE14=To Dang Old To Quit
TTITLE15=Many Others wt. Gordie Tapp
EXTD=
EXTT0=
EXTT1=
EXTT2=
EXTT3=
EXTT4=
EXTT5=
EXTT6=
EXTT7=
EXTT8=
EXTT9=
EXTT10=
EXTT11=
EXTT12=
EXTT13=
EXTT14=
EXTT15=
PLAYORDER=
